<svg xmlns="http://www.w3.org/2000/svg" viewBox="0 0 313 78" fill="none">
<path d="M175.253 70.0395L175.415 70.1134C174.254 72.2179 173.446 73.3502 172.477 73.3502C171.93 73.3502 171.058 72.7816 171.196 72.3829L174.015 63.9448L172.973 63.8267L171.196 66.2562L171.033 66.1823C172.024 64.3658 173.209 62.7978 174.23 62.7978C174.962 62.7978 175.864 63.6027 175.575 64.3781L172.734 72.2967L173.606 72.3927L175.243 70.0297L175.253 70.0395ZM174.801 59.4969C174.801 58.596 175.349 57.9388 175.985 57.9388C176.739 57.9388 177.123 58.5074 177.123 59.1646C177.123 60.0655 176.576 60.7227 175.94 60.7227C175.186 60.7227 174.801 60.1541 174.801 59.4969Z" fill="white"/>
<path d="M185.05 70.1798L185.212 70.2537C184.051 72.3582 183.339 73.3502 182.37 73.3502C181.897 73.3502 181.025 72.8776 181.025 72.6192C181.025 72.2426 182.186 69.146 183.201 66.6426C183.697 65.4168 183.837 64.8704 183.837 64.3731C183.837 64.0408 183.482 63.8267 183.053 63.8267C182.366 63.8267 180.566 66.8248 178.747 71.1029L178.134 73.2296L176.497 73.0672L177.658 69.4241L179.152 63.9867L178.131 63.8685L176.517 66.1356L176.354 66.0617C177.345 64.2451 178.368 62.7978 179.388 62.7978C180.12 62.7978 180.971 63.6027 180.712 64.3781L179.011 69.6531H179.107C181.313 64.7842 182.467 62.7978 183.82 62.7978C184.884 62.7978 185.55 63.3885 185.55 64.2156C185.55 64.9688 184.884 66.6451 184.323 68.0211L182.546 72.277L183.514 72.3952L185.052 70.17L185.045 70.1774L185.05 70.1798Z" fill="white"/>
<path d="M40.4195 77.6135L39.9981 76.3877L35.537 65.6063L34.4599 65.2593V76.6954C34.4599 77.0794 34.5733 77.2295 35.6504 77.3132L36.6067 77.3895L36.6831 77.6209H28.0789L28.1553 77.3895L29.1116 77.3132C30.1886 77.2369 30.302 77.0794 30.302 76.6954V54.5616C30.302 54.1776 30.1886 54.0275 29.1116 53.9462L28.1553 53.8699L28.0789 53.6361H36.6461C42.0265 53.6361 44.5208 55.7037 44.5208 59.5412C44.5208 62.5713 42.8325 64.799 39.796 65.567L43.4412 73.9705C44.6686 76.8062 45.551 77.2739 46.5147 77.3477L46.8992 77.3846L46.9756 77.616H40.4072L40.422 77.6086L40.4195 77.6135ZM34.4599 54.0225V64.8039C34.9578 65.0747 35.6134 65.2248 36.306 65.2248C38.6105 65.2248 39.9981 63.3048 39.9981 59.7012C39.9981 56.0976 38.6129 54.0225 35.8475 54.0225H34.4599Z" fill="white"/>
<path d="M57.2435 77.6259L57.3174 77.3969L58.0716 77.36C59.8486 77.2123 59.8856 76.8357 59.3508 74.6868L57.5762 67.6026H52.5975L51.2001 72.6856C50.1427 76.4517 50.4459 77.1705 52.6715 77.3551L53.2778 77.392L53.3517 77.6209H46.9756L47.0495 77.392L47.4266 77.3551C49.0459 77.2074 49.497 76.8677 50.749 72.4936L55.0105 57.6877L54.6334 56.2551C55.8756 55.8416 56.8614 55.0514 57.5047 53.6902H58.148L63.5038 74.5244C64.0287 76.6363 64.5981 77.2714 65.6185 77.3477L66.1434 77.3846L66.2174 77.6135H57.2361L57.2435 77.6283V77.6259ZM55.2372 58.4483H55.1633L52.7134 67.226H57.4702L55.2421 58.4483H55.2347H55.2372Z" fill="white"/>
<path d="M79.958 77.6259L80.0319 77.3969L81.0523 77.3231C82.2206 77.2492 82.3315 77.0203 82.3315 76.7176L81.8804 56.9049H81.8065L76.2585 77.5102H75.2011L69.6137 56.7499L69.4289 56.2256L68.9039 75.5533C68.8669 76.72 69.244 77.2074 70.9397 77.3255L71.9971 77.3994L72.071 77.6283H65.6924L65.7663 77.3994L66.6314 77.3255C67.955 77.2148 68.4085 76.6462 68.443 75.5163L69.0493 55.5487C68.7831 54.8324 68.0659 54.4558 67.2723 54.3819L66.4441 54.3081L66.3702 54.0791H73.0519L77.5426 70.9158H77.6165L82.1442 54.0791H88.5967L88.5228 54.3081L87.3545 54.4188C86.1123 54.5296 85.8831 54.7585 85.8831 55.2459L86.4081 76.7225C86.4081 77.0252 86.5559 77.2468 87.6872 77.328L88.6263 77.4019L88.7002 77.6308H79.9481H79.9555L79.958 77.6259Z" fill="white"/>
<path d="M98.3716 77.6259L98.4456 77.3969L99.1998 77.36C100.974 77.2123 101.011 76.8357 100.479 74.6868L98.7044 67.6026H93.7257L92.3282 72.6856C91.2709 76.4517 91.574 77.1705 93.7996 77.3551L94.406 77.392L94.4799 77.6209H88.1038L88.1777 77.392L88.5548 77.3551C90.1766 77.2074 90.6276 76.8677 91.8772 72.4936L96.1386 57.6877L95.7615 56.2551C97.0037 55.8416 97.9896 55.0514 98.6329 53.6902H99.2762L104.632 74.5244C105.157 76.6363 105.726 77.2714 106.747 77.3477L107.272 77.3846L107.346 77.6135H98.3642L98.3716 77.6283V77.6259ZM96.3679 58.4483H96.2939L93.844 67.226H98.6009L96.3728 58.4483H96.3654H96.3679Z" fill="white"/>
<path d="M107.806 77.6259L107.88 77.3969L108.819 77.3231C109.877 77.2492 109.988 77.0942 109.988 76.7176V54.9825C109.988 54.6059 109.877 54.4582 108.819 54.377L107.88 54.3031L107.806 54.0742L115.841 54.0004C122.56 53.9265 125.956 58.6329 125.956 65.4144C125.956 72.1958 122.294 77.6185 115.353 77.6185H107.806V77.6259ZM115.464 77.2862C119.578 77.1754 121.466 72.085 121.466 66.2488C121.466 59.5043 119.617 54.4582 114.939 54.4582H114.074V77.0277L115.472 77.2935L115.464 77.2862Z" fill="white"/>
<path d="M134.635 77.6259L134.708 77.3969L135.463 77.36C137.237 77.2123 137.277 76.8357 136.742 74.6868L134.965 67.6026H129.986L128.589 72.6856C127.531 76.4517 127.834 77.1705 130.06 77.3551L130.666 77.392L130.74 77.6209H124.362L124.436 77.392L124.813 77.3551C126.435 77.2074 126.883 76.8677 128.135 72.4936L132.397 57.6877L132.019 56.2551C133.262 55.8416 134.248 55.0514 134.891 53.6902H135.534L140.89 74.5244C141.415 76.6363 141.984 77.2714 143.007 77.3477L143.532 77.3846L143.606 77.6135H134.625L134.632 77.6283L134.635 77.6259ZM132.636 58.4483H132.562L130.112 67.226H134.869L132.641 58.4483H132.633H132.636Z" fill="white"/>
<path d="M157.578 77.7735L146.901 57.2422H146.827L146.864 75.5853C146.864 76.752 147.352 77.1655 148.789 77.3206L149.543 77.3945L149.617 77.6234H143.616L143.69 77.3945L144.481 77.3206C145.915 77.1729 146.369 76.6413 146.369 75.5114L146.443 56.5259C145.652 55.2853 144.86 54.4951 143.313 54.3031L143.239 54.0742H149.765L158.628 71.2506H158.702L158.665 56.105C158.665 54.9382 158.177 54.5247 156.743 54.3696L155.989 54.2958L155.915 54.0668H161.914L161.84 54.2958L161.049 54.3696C159.612 54.5173 159.161 55.049 159.161 56.1788L159.087 77.7662H157.578V77.7735Z" fill="white"/>
<path d="M195.687 77.6259L195.761 77.3969L196.7 77.3231C197.762 77.2492 197.873 77.0942 197.873 76.7176V54.9825C197.873 54.6059 197.762 54.4582 196.7 54.377L195.761 54.3031L195.687 54.0742L203.722 54.0004C210.443 53.9265 213.837 58.6329 213.837 65.4144C213.837 72.1958 210.172 77.6185 203.237 77.6185H195.687V77.6259ZM203.347 77.2862C207.459 77.1754 209.344 72.085 209.344 66.2488C209.344 59.5043 207.498 54.4582 202.82 54.4582H201.955V77.0277L203.355 77.2935L203.347 77.2862Z" fill="white"/>
<path d="M230.368 56.1862C230.368 54.8644 229.986 54.4951 228.485 54.377L227.496 54.3031L227.422 54.0742H233.463L233.389 54.3031L232.635 54.377C231.198 54.5247 230.861 54.9825 230.861 56.1862L230.816 68.9958C230.816 74.9871 228.859 78 224.103 78C219.346 78 217.007 75.7403 217.007 69.978V54.9801C217.007 54.6034 216.896 54.4927 215.644 54.3745L214.705 54.3007L214.631 54.0718H223.457L223.383 54.3007L222.444 54.3745C221.197 54.4853 221.081 54.6034 221.081 54.9801V69.3355C221.081 74.4998 222.7 76.4936 225.722 76.4936C228.744 76.4936 230.479 74.1601 230.434 69.0328L230.36 56.1862H230.368Z" fill="white"/>
<path d="M234.178 77.6259L234.252 77.3969L235.191 77.3231C236.246 77.2492 236.357 77.0942 236.357 76.7176V54.9825C236.357 54.6059 236.246 54.4582 235.191 54.377L234.252 54.3031L234.178 54.0742H241.957C247.653 54.0742 249.536 56.297 249.536 59.2015C249.536 61.7295 247.761 63.871 243.877 64.5873V64.735C248.173 65.2962 250.364 67.8586 250.364 71.066C250.364 74.9822 247.653 77.6185 242.102 77.6185H234.178V77.6259ZM241.239 64.7054C243.768 64.7054 245.079 62.5935 245.079 59.6594C245.079 56.2674 243.805 54.4582 241.239 54.4582H240.448V64.7054H241.239ZM241.723 77.2862C244.67 76.8726 245.871 74.6868 245.871 71.3318C245.871 67.4894 244.059 65.0821 241.493 65.0821C241.193 65.0821 240.739 65.119 240.438 65.1559V77.0203L241.713 77.2862H241.723Z" fill="white"/>
<path d="M259.799 77.6259L259.872 77.3969L260.627 77.36C262.401 77.2123 262.438 76.8357 261.908 74.6868L260.134 67.6026H255.15L253.75 72.6856C252.695 76.4517 253.003 77.1705 255.224 77.3551L255.833 77.392L255.907 77.6209H249.531L249.605 77.392L249.987 77.3551C251.606 77.2074 252.055 76.8677 253.307 72.4936L257.566 57.6877L257.191 56.2551C258.431 55.8416 259.419 55.0514 260.057 53.6902H260.703L266.061 74.5244C266.589 76.6363 267.153 77.2714 268.181 77.3477L268.701 77.3846L268.775 77.6135H259.796L259.803 77.6283L259.799 77.6259ZM257.731 58.4483L255.276 67.226H260.033L257.812 58.4483H257.731Z" fill="white"/>
<path d="M269.233 77.6259L269.307 77.3969L270.246 77.3231C271.493 77.2123 271.609 77.0942 271.609 76.7176V54.9825C271.609 54.6059 271.498 54.4951 270.246 54.377L269.307 54.3031L269.233 54.0742H278.059L277.985 54.3031L277.046 54.377C275.799 54.4878 275.683 54.6059 275.683 54.9825V76.7176C275.683 77.0942 275.794 77.2049 277.046 77.3231L277.985 77.3969L278.059 77.6259H269.233Z" fill="white"/>
<path d="M12.8397 46.4091L9.78105 44.2011C8.85926 45.3654 8.40083 46.062 7.71071 47.4577L10.9321 49.7838C11.4989 48.8288 12.0658 47.8811 12.6327 47.0565L15.7653 49.3186C16.4554 48.1568 17.1455 46.9925 17.8381 46.062L14.6168 43.7359C13.8355 44.723 13.3844 45.3802 12.8422 46.4091H12.8397Z" fill="white"/>
<path d="M22.6664 36.5237C23.3565 35.8271 23.8174 34.6628 23.8174 33.2672C23.8174 30.941 21.9763 28.6149 18.9842 27.6845C19.6743 27.6845 21.7446 26.754 22.2055 26.2888C24.5075 21.868 23.5857 15.1235 19.9035 11.8669H19.6743L17.8332 16.0539C19.6743 17.6834 21.9763 20.2409 22.4347 22.8009C21.0545 23.7313 16.9114 25.127 15.2995 25.3608L15.0703 25.5922L13.69 30.0131L13.9193 30.2444C16.4505 30.7097 20.1327 30.7097 22.2031 32.3392V32.8044C14.1485 38.8523 -3.34093 36.9914 3.79187 23.7313L2.87008 23.2661C-0.81216 28.3836 -1.96317 37.4566 5.63052 40.248C10.693 42.1089 18.5184 40.7132 22.6615 36.5262L22.6664 36.5237Z" fill="white"/>
<path d="M68.0043 6.05037L64.7829 3.72425C63.8611 4.88854 63.4027 5.58514 62.7126 6.98081L65.9339 9.30693C66.624 8.14264 67.3142 6.98081 68.0043 6.05037Z" fill="white"/>
<path d="M88.9467 14.6582L85.7253 12.3321C84.8036 13.4964 84.3451 14.193 83.655 15.5887L86.8764 17.9148C87.5665 16.753 88.2566 15.5887 88.9467 14.6582Z" fill="white"/>
<path d="M201.25 20.9375C213.682 16.9819 271.21 4.42085 281.567 2.32858L282.718 0.233842L282.491 0C274.2 1.39567 216.672 14.4219 208.617 16.5167C204.013 17.9123 199.872 18.3776 198.948 21.8655L199.182 22.0993C199.872 21.6341 200.56 21.1689 201.25 20.9351V20.9375Z" fill="white"/>
<path d="M275.351 13.4939C276.048 12.5635 276.963 11.1678 277.426 10.006C276.502 9.30693 275.351 8.37648 274.2 7.67988C273.51 8.61033 272.822 10.006 272.132 10.9364C273.049 11.8669 274.434 12.7973 275.351 13.4939Z" fill="white"/>
<path d="M60.4771 46.4091L57.4185 44.2011C56.4967 45.3654 56.0382 46.062 55.3457 47.4577L58.567 49.7838C59.1339 48.8288 59.7008 47.8811 60.2676 47.0565L63.4002 49.3186C64.0903 48.1568 64.7805 46.9925 65.4706 46.062L62.2492 43.7359C61.4679 44.723 61.0169 45.3802 60.4747 46.4091H60.4771Z" fill="white"/>
<path d="M92.8581 15.8201L91.7071 20.4723C93.3166 22.3332 95.1602 24.6593 95.6186 27.4506C94.0067 30.4758 91.4754 32.5681 87.7932 32.5681C81.8114 32.5681 78.8168 28.6125 82.0406 22.0993L81.3505 21.6341C78.1292 26.9854 77.6683 37.4517 86.6447 37.4517C90.7878 37.4517 93.319 36.056 95.1602 33.0309C98.3815 27.682 97.4622 20.7012 93.5482 15.8176H92.8581V15.8201Z" fill="white"/>
<path d="M309.415 16.9843H308.725L307.113 22.1018C308.725 23.7289 312.868 27.4506 311.254 29.7792C307.801 34.8967 299.746 39.0837 293.301 36.9914L292.84 38.1557C297.444 40.2504 300.668 41.4123 302.97 41.4123C306.423 41.4123 308.035 38.6209 311.027 32.8044C313.783 27.6869 314.017 20.4748 309.415 16.9868V16.9843Z" fill="white"/>
<path d="M21.2862 43.9673L24.5075 46.2934C25.1976 45.1291 25.8878 43.9673 26.5779 43.0369L23.3565 40.7107C22.4347 41.875 21.9763 42.5716 21.2862 43.9673Z" fill="white"/>
<path d="M66.8533 27.6845C67.5434 27.6845 69.1553 27.4506 69.6137 27.2193C70.9939 23.2636 71.2256 18.8452 69.8429 15.3548C68.6919 12.5635 66.3899 11.1678 64.3196 12.7973C62.0176 14.6582 60.4081 20.4748 62.4785 22.3356C63.8932 23.7682 66.91 23.7584 69.0271 21.8384C69.1011 22.3824 69.1528 22.9633 69.1528 23.4975C67.7726 24.4279 64.7805 25.127 63.1686 25.3584L61.5591 29.5454L62.02 30.242C64.5512 30.4758 68.0018 30.7072 70.0746 32.3367V32.8019C62.02 38.8498 44.5306 36.989 51.6634 23.7289L50.7416 23.2636C47.0594 28.3811 45.9084 37.4542 53.5021 40.2455C58.5645 42.1064 66.3899 40.7107 70.533 36.5237C71.2231 35.8271 71.684 34.6628 71.684 33.2672C71.684 30.941 69.8429 28.6149 66.8508 27.6845H66.8533ZM65.473 19.7757C64.322 19.7757 62.9418 19.0791 62.4809 17.9148C62.9393 16.9843 64.5512 16.2877 65.473 16.5191C66.735 16.8022 67.5656 17.8631 68.0782 18.8059C67.2747 19.3868 66.5033 19.7757 65.473 19.7757Z" fill="white"/>
<path d="M301.587 25.8236C301.821 23.2661 300.897 16.7505 297.908 16.7505C295.605 16.7505 293.538 19.5418 292.387 21.868C288.978 27.6131 281.678 28.3122 278.56 28.3786C282.424 26.2617 285.71 23.367 285.71 20.4723C285.71 17.2157 282.947 15.3548 280.418 15.3548C275.75 15.3548 270.303 20.5412 266.315 26.2642C264.671 25.7916 264.03 25.3165 263.449 24.8439L264.306 22.567L263.39 22.1018C262.465 23.7289 261.314 25.5898 258.786 26.754C249.814 30.7097 217.825 36.7576 183.531 36.7576C149.238 36.7576 114.491 31.8715 105.746 27.2193C102.983 26.055 102.064 23.7289 101.603 20.7061C101.144 17.2182 101.832 3.95809 100.684 0.932908H100.223C99.3008 2.0972 98.1523 4.18947 97.4597 5.81898C98.3815 7.21465 98.8399 7.91372 99.0716 9.30693C100.913 15.8201 97.9206 27.2193 103.905 31.6401C110.35 36.5262 141.417 41.1784 177.779 41.6437C215.806 42.0744 253.617 36.4917 261.235 29.1737C262.091 29.7201 262.872 30.1854 263.648 30.5595C262.465 32.7207 261.571 34.7933 261.088 36.5262L261.778 36.76C262.724 34.4659 263.673 32.9496 264.876 31.0666C265.945 31.4383 267.077 31.6426 268.455 31.6426C269.327 31.6426 270.411 31.4727 271.609 31.17C277.601 34.6628 286.474 34.7441 289.853 27.6869H290.314C292.155 29.7817 296.296 31.874 299.058 32.573C300.209 31.4087 301.587 29.0851 301.587 25.8261V25.8236ZM268.225 26.6679C271.139 23.6402 275.521 20.2409 278.35 20.2409C281.18 20.2409 282.72 21.4052 283.408 22.7984V23.0323C279.974 25.4199 272.728 27.1996 268.225 26.6679ZM300.444 27.2193L300.21 27.4506C298.371 26.9854 294.228 24.6593 292.843 23.7289C295.605 19.3105 300.209 22.1018 300.444 27.2193Z" fill="white"/>
<path d="M29.8017 20.0071L30.2626 20.2409C32.7938 19.5443 37.1661 24.4279 37.627 26.2888C36.0151 26.9854 27.5021 29.0802 27.5021 26.055H26.812C26.3511 27.682 25.8902 30.242 27.0412 31.4038C29.3432 33.7299 34.4057 32.1004 37.8587 30.4734C39.9291 27.2168 39.0097 20.9351 35.7884 17.2133C32.7963 13.9567 30.265 14.1881 29.8041 20.0046L29.8017 20.0071Z" fill="white"/>
</svg>